<?xml version="1.0" encoding="UTF-8"?>
<svg id="Layer_1" data-name="Layer 1" xmlns="http://www.w3.org/2000/svg" viewBox="0 0 1080 1080">
  <defs>
    <style>
      .cls-1 {
        font-family: ComicSansMS-Bold, 'Comic Sans MS';
        font-size: 98.7px;
      }

      .cls-1, .cls-2 {
        fill: #ae8f6d;
      }

      .cls-3 {
        fill: #277f68;
      }
    </style>
  </defs>
  <g>
    <g>
      <path class="cls-2" d="M550.98,433.56c-2.34-7.44-4.76-15.13-5.54-22.43h0c-.58-5.36-.13-18.87,.3-31.93,.36-10.74,.72-21.85,.5-28.31-.17-5.16-.65-6.47-1.59-7.32-1.77-1.6-5.57-1.57-18.67-.58-2.43,.18-4.86,.37-6.96,.49-2.14,.02-3.2-.06-3.71-.16-.35-1.43,0-5.61,.28-9.02,.91-11.04,2.16-26.16-7.13-32.26-4.11-2.7-10.94-3.87-21.39-3.68-6.04-.12-12.37,.33-17.94,.73-2.66,.19-5.1,.36-6.88,.44-.38-.03-.64-.06-.83-.09-.76-2.48-.07-12.23,.49-20.14,1.27-17.88,2.85-40.14-3.26-48.87-4.85-6.93-18.95-9.85-33.39-11.96-7.61-1.38-15.81-2.47-23.74-3.52-5.14-.68-10.08-1.34-14.34-2-2.37-.54-4.3-1.09-5.87-1.67,.04-.83,.48-2.76,2.51-7.2,4.11-7.18,7.14-13.84,8.97-19.68,4.37-11.45,4.7-19.58,1.04-25.57-3.27-5.36-9.74-8.61-19.24-9.68l-1.71-.15c-2.32-.31-4.88-.47-7.61-.49h-1.24s-1.27,0-1.27,0c-2.73,.02-5.29,.19-7.54,.48l-1.78,.16c-9.5,1.06-15.97,4.32-19.24,9.67-3.65,5.99-3.32,14.12,1,25.44,1.88,5.96,4.91,12.63,8.92,19.62,2.14,4.67,2.58,6.62,2.64,7.38-1.57,.59-3.48,1.14-5.74,1.66-4.42,.69-9.36,1.35-14.5,2.03-7.93,1.05-16.13,2.15-23.67,3.51-14.52,2.12-28.62,5.04-33.47,11.97-6.11,8.73-4.53,30.98-3.26,48.87,.57,8.1,1.29,18.13,.58,20.13-.15,.03-.36,.07-.65,.1-2.05-.08-4.49-.25-7.15-.44-5.58-.39-11.9-.85-17.86-.73-10.56-.19-17.37,.99-21.47,3.68-9.29,6.1-8.04,21.22-7.13,32.26,.28,3.41,.63,7.59,.28,9.02-.51,.09-1.54,.19-3.71,.16l-2.28-.03c-8.01-.14-18.99-.34-24.38,5.99l-.53,.63-.03,.82c-.22,6.45,.15,17.56,.5,28.3,.43,13.07,.88,26.58,.3,31.94-.79,7.3-3.2,14.99-5.54,22.42-2.69,8.55-5.23,16.63-5.57,24.35-.05,1.03-.05,2.04-.02,3.05,.04,.94,.14,1.89,.24,2.85,.75,6.76,3.09,13.75,5.58,21.16,4.02,11.99,8.18,24.38,5.44,36.2l-.54,2.34,2.35,.5c3.23,.68,6.09,1.02,8.62,1.02,3.6,0,6.51-.7,8.79-2.1,9.98-6.12,4.9-22.53-.48-39.9-3.07-9.9-6.24-20.13-6.13-27.54,.1-7.46,2.83-15.44,5.72-23.9,2.29-6.7,4.66-13.63,5.67-20.44,.84-5.6,.6-17.66,.37-29.33-.16-8.43-.37-18.74,.1-21.82,1.18-.13,3.55-.07,5.52-.02l5.08,.31c13,.99,16.77,1.02,18.52-.58,1.14-1.04,1.51-2.87,1.47-7.25-.03-3.7-.4-8.78-.76-13.69-.41-5.7-1.02-14.07-.61-16.74,.54-.04,1.5-.05,3.25,.04,1.04,.06,2.2,.14,3.47,.22,3.52,.24,7.87,.51,12.37,.5,10.6,.55,23.46,.25,28.99-7.12,1.66-2.22,2.81-5.18,3.51-9.05,4.33-11.11,3.17-32.81,2.32-48.69-.21-3.86-.4-7.4-.49-10.39,6.67-7.16,34.19-11.83,74.11-12.54,40.01,.72,67.53,5.39,74.2,12.54-.09,2.99-.28,6.53-.49,10.4-.85,15.87-2,37.57,2.32,48.68,.7,3.87,1.85,6.83,3.51,9.05,5.52,7.36,18.38,7.68,28.84,7.12,4.57,.03,8.99-.26,12.51-.5,.95-.07,1.85-.13,2.68-.18,.05,1.35-.14,3.89-.3,6.01-.61,8.01-1.44,18.95,2.97,25.21,.02,3.75,.41,5.4,1.47,6.37,1.75,1.61,5.52,1.57,18.53,.58l3.8-.28c5.75-.41,9.43-.5,10.98-.28,.44,3.19,.04,14.07-.28,22.95-.42,11.66-.86,23.72-.15,29.03l27.2,70.57,1.96-6.64c1.39-4.72,2.22-8.48,2.59-11.86,.1-.96,.2-1.91,.24-2.85,.04-1,.03-2.01-.02-3.04-.35-7.72-2.89-15.8-5.57-24.35Z"/>
      <path class="cls-2" d="M621.59,415.28c-2.71-6.22-5.52-12.65-6.14-19.49-1-11.09-.63-22.79-.23-35.17,.83-26.19,1.7-53.27-11.17-75.01-2.53-4.27-6.41-7.46-10.16-10.56-4.67-3.84-9.08-7.47-11.08-12.97-1.61-4.42-1.93-10.67-2.27-17.29-.49-9.52-1-19.36-5.53-25.46-5.07-6.84-17.7-5.62-29.91-4.45-6.95,.67-14.8,1.42-17.26-.2-.48-.93-1.49-4.12-2.46-7.21-3.41-10.87-9.13-29.05-18.23-39.21-8.57-9.57-22.47-15.73-31.68-19.81-3.02-1.34-6.44-2.85-7.01-3.38-1.61-2.18-2.34-7.1-3.1-12.3-1.65-11.13-3.69-24.97-15.57-31.19l-82.7-59.61c-1.59-1.14-3.6-1.55-5.54-1.12-1.87,.42-3.46,1.59-4.36,3.22-8.96,16.21-25.72,24.84-41.92,33.19-11.89,6.12-24.18,12.45-32.88,21.69-8.66,9.2-12.64,21.6-15.83,31.58-2,6.25-3.73,11.64-5.96,14.13-1.4,1.57-5.43,3.17-9.68,4.87-6.86,2.74-15.39,6.14-22,12.34-9.75,9.15-15.93,25.75-20.44,37.88-1.95,5.23-4.37,11.75-5.56,12.66-4.06,2.65-11.55,2.53-18.82,2.42-10.33-.16-21.01-.32-26.26,6.73-4.9,6.59-4.02,16.21-3.17,25.51,.53,5.84,1.04,11.36,.04,15.47-.43,1.79-4.8,4.02-8.66,5.99-5.08,2.59-10.84,5.53-14.44,10.04-12.87,16.11-11.93,41.13-11.01,65.33,.45,11.89,.87,23.12-.36,32.77-1.22,9.49-5.82,20.89-10.28,31.92-4.95,12.25-9.63,23.83-9.07,31.71,.48,6.82,4.18,15.39,8.46,25.32,4.47,10.38,9.54,22.14,10.89,32.68l.93,7.26,16.19-29.96c.26,1.3,.55,2.58,.92,3.84,2.91,9.96,9.19,19.1,19.2,27.94l.54,.48,.71,.1c2.17,.29,3.98,.44,5.51,.44,3.24,0,5.15-.67,6.33-2.1,1.91-2.31,.91-5.31-.25-8.78-.55-1.66-1.18-3.54-1.57-5.53-1.73-8.98-2.96-16.26-3.76-22.27-1.84-13.82-1.41-21.06,.06-29.44l1-2.38c2.92-6.9,6.23-14.71,6.76-23.32,.67-10.76-.08-23.5-.8-35.83-.95-16.29-1.94-33.13,.33-45.36,.13-.69,.91-1.63,6.01-1.9,3.15,.07,6.85,.08,10.36-.39,4.78-.39,10.71-1.44,14.22-6.11,5.04-6.71,3.96-19.92,3.16-29.57-.25-3.07-.56-6.8-.39-8.33,1.81-.26,6.7,.1,10.71,.39,2.46,.18,5.14,.38,7.85,.52,12.08,.92,21.02,1.01,25.38-1.51,.86-.5,1.64-1.18,2.38-2.09,5.1-6.25,5.55-21.51,5.98-36.27,.25-8.56,.49-16.64,1.7-20.69,1.68-5.61,5.49-9.44,11.99-12.03,4.44-1.78,10.01-2.95,17.31-3.69,3.12-.03,6.55,.13,9.85,.28,11.69,.53,23.77,1.08,29.56-5.53,.82-.29,1.64-.58,2.4-.92l2.75-1.26-1.89-2.36c-.28-.35-.54-.7-.79-1.06l-.45-.61c-9.21-12.4-12.11-27.15-7.97-40.46,1.67-5.37,4.33-10.19,7.91-14.31,5.05-3.54,12.81-7.01,23.72-10.62,3.24-1.07,6.59-1.81,9.97-2.18,3.37,.37,6.72,1.1,9.97,2.18,10.91,3.61,18.67,7.09,23.72,10.62,3.49,4.02,6.11,8.7,7.79,13.92-.26,4.14-1.85,8.97-3.67,14.53-1.56,4.74-3.32,10.12-4.67,16.25-.95,4.35-1.03,7.99-.22,11.06-.17,.24-.35,.47-.53,.7l-1.88,2.36,2.75,1.25c.76,.35,1.58,.64,2.4,.92,5.79,6.61,17.86,6.06,29.56,5.53,3.31-.15,6.74-.3,9.63-.3,7.52,.75,13.09,1.93,17.34,3.62,13.58,6.89,12.63,22.48,11.71,37.57-.66,10.93-1.29,21.25,3.68,27.95,1.15,1.55,2.77,2.88,4.82,3.96,.64,.71,1.31,1.26,2.04,1.69,4.37,2.53,13.31,2.43,25.33,1.52,2.76-.15,5.44-.34,7.9-.52,4.01-.29,8.91-.65,10.71-.39,.17,1.53-.14,5.26-.39,8.33-.79,9.65-1.88,22.86,3.17,29.57,3.51,4.67,9.44,5.72,14.1,6.1,3.63,.48,7.34,.47,10.3,.39,5.28,.27,6.06,1.21,6.18,1.9,2.27,12.23,1.28,29.07,.33,45.36-.72,12.32-1.47,25.07-.8,35.83,.53,8.61,3.84,16.42,6.76,23.32l1.01,2.39c.35,1.93,.64,3.19,.87,4.15q.61,2.6-.57,11.43l-.28,2.11,2.24,15.86,5.55,5.99c.35-1.79,6.17-8.27,8.36-10.71,2.54-2.82,3.11-3.5,3.4-4.18,.08-.19,7.57-18.85,4.71-25.73l-.56-2.13c-2.03-7.67-4.12-15.6-4.68-23.36-.53-7.45-.18-18.63,.19-30.47,.75-23.83,1.59-50.83-4.21-61.38-2.69-4.89-7.16-8.3-13.52-10.39-3.8-1.53-8.2-2.43-13.21-2.73-2.25-.37-2.9-.62-2.96-.63-1.37-1.51-.95-7.26-.57-12.33,.75-10.14,1.69-22.77-7.08-28.56-.1-.07-.21-.14-.33-.2-.24-1.08-.61-1.81-1.17-2.33-1.3-1.22-3.82-1.67-15.13-1.15-6.3-.17-12.98,.3-18.87,.71-4.33,.31-9.63,.68-11.46,.39-.35-1.43-.58-5.18-.79-8.54-1.32-20.98-4.4-70-49.43-70-.17,0-.34,0-.51,0-3.9-.06-8.03,.27-12.46,.99,9.41-16.03,4.45-35.71-13.86-53.69-11.38-12.29-27.63-21.61-44.57-25.58-2.4-.56-5.08-.78-8.02-.66-3.07-.12-5.83,.1-8.2,.66-16.95,3.97-33.19,13.29-44.5,25.5-18.39,18.05-23.35,37.74-13.94,53.77-4.42-.72-8.58-1.03-12.4-.99-.17,0-.34,0-.51,0-45.08,0-48.17,49.03-49.49,70.01-.21,3.35-.45,7.11-.79,8.53-1.82,.3-7.12-.08-11.46-.39-5.9-.42-12.59-.89-18.87-.71-6.78,.19-11.77,1.15-15.25,2.95l-.32,.15c-.38,.18-.75,.37-1.06,.57-8.78,5.8-7.84,18.42-7.08,28.56,.38,5.07,.8,10.82-.45,12.22-.19,.12-.83,.38-2.84,.72-5.24,.32-9.64,1.22-13.3,2.7-6.51,2.14-10.98,5.55-13.67,10.44-5.8,10.55-4.95,37.55-4.21,61.38,.37,11.84,.72,23.02,.19,30.47-.56,7.76-2.65,15.68-4.68,23.34l-.56,2.12c-2.09,4.49-4.12,9.24-4.39,13.86-.08,1.33,0,3.71,.22,7.26-.11,1.27-.14,2.49-.17,3.71-1.33-3.17-3.04-6.19-4.74-9.15-2.92-5.11-5.68-9.94-6.04-14.84-.56-7.51,2.83-13.68,6.42-20.21,2.91-5.29,5.92-10.76,6.64-17,1.24-10.68,.68-23.66,.08-37.4-1.14-26.18-2.43-55.86,9.9-71.28,2.96-3.71,8.21-6.39,12.84-8.75,5.43-2.77,10.12-5.17,11.13-9.07,1.32-5.1,.58-14.68-.14-23.94-.41-5.26-.96-12.32-.55-14.54,1.84-.3,7.12,.09,11.43,.4,12.38,.91,27.8,2.04,35.45-2.99,4.85-3.19,7.12-12.83,9.73-23.99,2.1-8.97,4.28-18.24,7.79-23.89,6.74-10.82,19.54-16.65,29.83-21.34,7.81-3.56,13.98-6.37,16.61-10.59,2.77-4.43,3.42-9.74,4.12-15.35,.8-6.44,1.62-13.1,5.58-19.66,7.13-11.82,68.32-47.93,80.12-44.95,4.85,1.5,60.83,39.7,64.05,44.95,3.95,6.56,4.78,13.23,5.58,19.67,.7,5.62,1.35,10.92,4.12,15.34,2.6,4.16,8.91,7.11,16.9,10.85,11.45,5.36,25.7,12.03,32.49,24.43,3.19,5.83,4.73,14.22,6.21,22.34,1.87,10.18,3.48,18.97,8.28,22.22,7.36,4.97,22.86,3.85,35.31,2.95,4.41-.32,9.79-.71,11.66-.4,.4,2.22-.14,9.23-.54,14.46-.71,9.27-1.44,18.86-.13,23.98,.95,3.69,5.27,5.95,10.74,8.82,8.89,4.66,19.94,10.46,22.68,23.99,2.66,13.16,1.78,29.08,.84,45.93-.78,14-1.58,28.48-.16,41.32,.99,8.93,4.47,18.23,7.84,27.22,3.18,8.49,6.47,17.27,7.75,25.86,.36,2.37,1.94,4.31,4.25,5.18,2.32,.88,4.93,.45,6.81-1.13,15.32-12.83,9.7-25.69,4.28-38.13Z"/>
    </g>
    <g>
      <path class="cls-3" d="M833.04,750.16c-1.12-.56-3.21,0-6.29,1.67-15.37,9.18-33.95,13.77-55.75,13.77-5.59,0-11.52-1.6-17.82-4.8-6.29-3.19-9.44-6.46-9.44-9.8,0-7.51,8.24-16.96,24.73-28.36,18.45-13.62,27.67-27.24,27.67-40.87,0-5.56-8.66-8.34-25.99-8.34-12.02,0-19.99,1.11-23.9,3.33-5.87,2.78-10.76,9.32-14.67,19.6-1.12,1.67-1.12,3.06,0,4.18,1.12,.55,2.52,0,4.2-1.67,4.75-3.34,13.13-5,25.15-5,6.15,0,12.72,.83,19.7,2.5-18.44,14.74-28.5,22.94-30.18,24.61-11.46,12.51-17.19,26-17.19,40.46,0,15.29,12.02,22.93,36.05,22.93s45.28-9.73,62.05-29.19c2.79-2.78,3.35-4.45,1.67-5Z"/>
      <g>
        <path class="cls-3" d="M567.15,503.88s-.02-.03-.03-.05c-2.31-4.3-4.4-7.8-6.29-10.6-3.53-5.22-6.34-7.88-8.4-7.88-1.16,0-2.88,5.8-5.19,17.41-2.31,11.6-3.46,18.7-3.46,21.28,0-.68,2.58,2.62,7.66,9.79,1.32,1.87,2.77,3.93,4.44,6.33,8.07,11.6,12.11,20.7,12.11,27.29,0,3.15-6.2,7.88-18.58,14.19-13.54,6.88-25.35,10.32-35.43,10.32-40.33,0-65.39-18.48-75.18-55.45-6.05-30.09-10.23-52.73-12.53-67.92-12.1-57.32-36.73-112.05-73.89-164.2-4.61-6.31-7.63-9.46-9.07-9.46-2.31,0-3.46,15.04-3.46,45.13,0,2.29,2.74,8.74,8.21,19.35,17.29,34.1,32.84,69.63,46.66,106.6,12.39,34.1,18.58,55.88,18.58,65.34,0,10.89-24.63,35.53-73.89,73.93-53.87,42.13-97.22,63.19-130.06,63.19-17,0-28.81-2.58-35.43-7.74-7.49-6.02-11.23-17.48-11.23-34.39,0-12.04,2.59-25,7.78-38.9,5.18-13.9,7.77-21.13,7.77-21.71,0-1.14-.72-1.72-2.16-1.72-4.61,0-10.08,9.17-16.42,27.51-7.49,21.2-11.24,43.7-11.24,67.49,0,14.61,4.32,26.94,12.96,36.96,10.37,12.61,25.64,18.91,45.81,18.91,27.08,0,64.1-16.48,111.05-49.43,44.65-31.52,74.46-60.18,89.44-85.96,4.32-7.45,7.06-19.92,8.21-37.4,13.83,61.89,43.07,92.84,87.71,92.84h0c27.37,0,47.97-9.45,61.79-28.36,7.95-11.26,12.53-25.78,13.83-43.46,.25-3.46,.43-7,.43-10.71,0-16.88-4.17-33.06-12.51-48.52Z"/>
        <polygon class="cls-3" points="507.53 694.03 463.46 668.24 441.85 706.93 486.79 733.14 504.94 700.91 549.02 726.7 570.62 688.01 525.68 661.79 507.53 694.03"/>
      </g>
      <polygon class="cls-3" points="803.73 673.41 848.67 699.62 870.28 660.94 825.34 634.72 803.73 673.41"/>
      <path class="cls-3" d="M982.19,500.18c-6.05,13.47-12.24,25.51-18.57,36.11-1.45,2.58-2.89,3.86-4.33,3.86-17.86-1.14-28.03-.95-35.86,.43l-9.51,1.72c-24.19,4.59-58.33,15.77-102.41,33.53-47.22,19.33-82.06,33.16-104.65,41.56-.82,34.62-10.14,62.47-28.01,83.52-10.08,11.75-41.63,33.24-94.63,64.48-55.6,32.95-97.23,53.44-124.88,61.46-.57,.58-37.73,6.74-111.48,18.49-30.25,5.44-47.96,8.16-53.15,8.16-2.31,0-3.46-.28-3.46-.85,0-2.58,16.85-10.03,50.56-22.35,59.34-21.5,106.44-40.56,141.3-57.18,50.12-22.06,97.94-47.28,143.46-75.65,43.79-26.94,65.68-43.99,65.68-51.16s-1.58-14.76-4.75-23.64c-17,7.74-33.99,11.6-50.99,11.6-30.83,0-46.24-11.46-46.24-34.39,0-14.62,5.04-29.24,15.12-43.85,11.24-17.19,23.91-25.79,38.03-25.79,12.39,0,26.5,9.17,42.35,27.51,4.34,4.06,8.57,11.07,12.69,20.99,32.84-11.55,79.15-27.29,138.99-47.21-27.95-5.73-61.14-13.61-100.25-19.78l-95.07-6.01c-2.59-.29-3.88-1.86-3.88-4.73,0-2.58,2.59-8.31,7.78-17.19,6.34-10.32,9.94-14.83,16.28-19.42,1.97-1.5,5.08-3.17,8.9-4.63,4.81-2.31,11.12-5.18,18.99-8.62,48.97-21.2,84.84-56.16,107.6-104.88,14.98-30.95,29.52-46.42,43.64-46.42,5.19,0,10.52,6.73,15.99,20.2,4.61,11.75,6.91,22.64,6.91,32.67,0,10.6-1.15,20.77-3.46,30.52-2.88,11.17-6.48,16.76-10.8,16.76-2.31,0-3.17-2.58-2.59-7.74v-16.76c-1.73-21.78-7.63-32.67-17.72-32.67-7.49,0-13.97,3.87-19.44,11.6-11.81,20.35-23.91,40.84-36.3,61.47-11.75,19.13-25.5,34.69-41.21,46.72,75.21,23.84,147.97,35.8,218.28,35.8,8.35,0,16.71-.14,25.06-.43,4.03-.29,6.04,.43,6.04,2.15Zm-319.33,89.84c-10.08-12.32-20.45-18.49-31.11-18.49-2.31,0-5.19,1.36-8.65,4.08-3.46,2.72-5.19,5.23-5.19,7.52,0,5.73,6.77,8.6,20.31,8.6,10.08,0,18.29-.57,24.63-1.72Z"/>
      <polygon class="cls-3" points="822.41 248.19 866.48 273.98 888.09 235.29 843.16 209.07 825.01 241.31 780.93 215.52 759.32 254.2 804.26 280.43 822.41 248.19"/>
      <path id="f4_844" data-name="f4 844" class="cls-3" d="M343.99,450.93h0c1.6,1.59,1.6,5.7,0,12.32h0c-1.06,6.36-2.66,9.54-4.79,9.54h0s-1.66-2.12-4.99-6.36c-3.33-4.24-6.85-6.35-10.58-6.35h0c-7.72,0-13.18,14.24-16.38,42.71-3.2,28.47-6.12,42.44-8.78,41.91h0c-3.46,0-7.06-6.22-10.78-18.67h0c-4.26-15.89-11.59-28.2-21.97-36.95h0c-.53,1.33-1.33,2.52-2.4,3.58h0c-1.86,.53-6.46-1.26-13.77-5.36-7.32-4.11-11.25-7.75-11.79-10.93h0c-1.6-14.83,1.2-22.25,8.39-22.25h0c13.04-.53,26.89,13.37,41.54,41.72h0c2.13,5.83,5.19,12.58,9.19,20.26h0c1.6-13.51,3.73-27.02,6.39-40.53h0c4.26-25.16,11.05-37.47,20.37-36.95h0c7.19,0,13.98,4.11,20.37,12.32Z"/>
      <path class="cls-3" d="M399.13,774.07c12.27-5.95,21.15-28.34,16.25-41.39-1.24,.44-2.7,.61-3.67,1.35-15.14,11.45-27.2,8-29.38-10.13-1.35-11.23-.64-24.06,3.94-34.26,11.56-25.77,25.87-50.44,38.98-75.6,1.79-3.43,3.04-7.11,4.53-10.68-.92-.5-1.85-.99-2.77-1.49-1.24,1.04-2.8,1.89-3.67,3.16-23.59,34.28-44.56,69.87-53.49,110.27-3.63,16.42-4.87,33.68,4.45,49.55,6.22,10.61,15.15,13.91,24.84,9.21Z"/>
      <path class="cls-3" d="M492.3,516.74c8.8-5.15,13.64-21.06,8.82-29.39-.9,.41-1.99,.66-2.67,1.25-10.5,9.13-19.93,7.93-23.11-4.07-1.97-7.43-2.51-16.14,.1-23.44,6.59-18.43,15.35-36.38,23.17-54.55,1.07-2.48,1.7-5.07,2.54-7.61-.74-.25-1.48-.49-2.23-.74-.85,.82-1.96,1.54-2.52,2.47-14.99,25.29-27.88,51.21-31.24,79.25-1.37,11.39-.85,23.13,7.54,32.94,5.61,6.56,12.64,7.94,19.59,3.87Z"/>
      <path class="cls-3" d="M836.62,128.94h0c.44,4.92-.55,10.91-2.98,17.99-2.43,7.08-4.92,11.3-7.47,12.67h0c-5.26,1.23-41.04,16.44-107.37,45.62h0c-71.09,31.51-110.62,49.91-118.56,55.2h0c-1.79-2.89-1.5-8.16,.87-15.8,2.38-7.64,5.4-12.39,9.06-14.24h0c136.77-67.87,212.25-101.69,226.45-101.43Z"/>
      <path class="cls-3" d="M698.37,759.24h0c.44,4.92-.55,10.91-2.98,17.99-2.43,7.08-4.92,11.3-7.47,12.67h0c-5.26,1.23-41.04,16.44-107.37,45.62h0c-71.09,31.51-110.62,49.91-118.56,55.2h0c-1.79-2.89-1.5-8.16,.87-15.8,2.38-7.64,5.4-12.39,9.06-14.24h0c136.77-67.87,212.25-101.69,226.45-101.43Z"/>
      <path id="f4_836" data-name="f4 836" class="cls-3" d="M710.44,357.97h0c-10.91,5.12-27.79,8.5-50.65,10.14h0c-1.65,0-2.68-.41-3.09-1.23h0c-.41-1.23,0-2.25,1.23-3.08h0c14.82-6.35,33.97-15.15,57.44-26.42h0c-3.29-3.07-13.59-5.22-30.88-6.45h0c-16.47-1.23-26.76-1.43-30.88-.62h0c-1.85,.41-3.19,.41-4.02,0h0c-.82-.41-.62-1.43,.62-3.07h0c5.97-9.21,13.18-18.64,21.62-28.26h0c16.47-3.48,37.57-1.43,63.31,6.14h0c6.18,1.64,9.27,5.22,9.27,10.75h0c0,5.94-4.27,13.82-12.82,23.66-8.54,9.83-15.59,15.98-21.15,18.43Z"/>
    </g>
  </g>
  <text class="cls-1" transform="translate(4.54 1009.4)"><tspan x="0" y="0">TAJWEED SCHOLARS</tspan></text>
</svg>